<?xml version="1.0" standalone="no"?><!DOCTYPE svg PUBLIC "-//W3C//DTD SVG 1.1//EN" "http://www.w3.org/Graphics/SVG/1.1/DTD/svg11.dtd"><svg class="icon" height="512" viewBox="0 0 1024 1024" version="1.1" xmlns="http://www.w3.org/2000/svg"><path d="M736.83968 795.93472v-179.30752l-620.78976 4.78208v175.23712h0.27136c0 73.55392 138.92608 133.20704 310.272 133.20704 171.35616 0 310.28224-59.648 310.28224-133.20704-0.00512-0.23552-0.03584-0.47616-0.03584-0.71168" fill="#2299E1" /><path d="M736.8704 616.63232c0 73.54368-138.92608 133.19168-310.28224 133.19168-171.36128 0-310.272-59.64288-310.272-133.19168 0-73.59488 138.91072-133.22752 310.272-133.22752 171.35616 0 310.28224 59.63264 310.28224 133.22752" fill="#FFFDFA" /><path d="M426.58816 511.77472c161.46944 0 282.10176 55.32672 282.10176 104.8576 0 49.46432-120.63232 104.81664-282.10176 104.81664-161.4592 0-282.10176-55.35232-282.10176-104.81664 0-49.51552 120.64256-104.8576 282.10176-104.8576m0-28.36992c-171.36128 0-310.272 59.648-310.272 133.22752 0 73.54368 138.91072 133.19168 310.272 133.19168 171.35616 0 310.28224-59.64288 310.28224-133.19168 0-73.58464-138.92608-133.22752-310.28224-133.22752" fill="#FFFDFA" /><path d="M736.83968 586.76224V407.44448l-620.78976 4.7616v175.25248h0.27136c0 73.55392 138.92608 133.1968 310.272 133.1968 171.35616 0 310.28224-59.63776 310.28224-133.1968-0.00512-0.2304-0.03584-0.4608-0.03584-0.69632" fill="#2299E1" /><path d="M736.7936 407.45984c0 73.54368-138.92608 133.1968-310.3232 133.1968-171.3664 0-310.2976-59.648-310.2976-133.1968 0-73.59488 138.9312-133.22752 310.2976-133.22752 171.39712 0.01024 310.3232 59.63264 310.3232 133.22752" fill="#FFFDFA" /><path d="M426.4704 302.60224c161.47456 0 282.10688 55.34208 282.10688 104.84736 0 49.5104-120.63232 104.84224-282.10688 104.84224-161.44384 0-282.06592-55.33184-282.06592-104.84224 0.01024-49.50528 120.62208-104.84736 282.06592-104.84736m0-28.35968c-171.35616 0-310.2976 59.62752-310.2976 133.20704 0 73.5488 138.94144 133.21216 310.2976 133.21216 171.41248 0 310.33344-59.65824 310.33344-133.21216-0.01024-73.58464-138.93632-133.20704-310.33344-133.20704" fill="#FFFDFA" /><path d="M736.83968 377.6V198.28224h-0.04608c0 73.56928-138.92608 133.1968-310.3232 133.1968-167.61856 0-303.85664-57.09312-309.70368-128.42496h-0.7168v175.24736h0.27136c0 73.54368 138.92608 133.21216 310.272 133.21216 171.35616 0 310.28224-59.66336 310.28224-133.21216-0.00512-0.2304-0.03584-0.47104-0.03584-0.70144" fill="#2299E1" /><path d="M425.00608 84.096c-161.47968 0-308.34688 66.32448-280.59648 127.96416 0.56832 1.36704 0.46592 3.0464 0.68096 4.53632 7.04512 48.27648 124.86656 100.29568 281.3952 100.29568 161.20832 0 281.71776-55.19872 282.06592-104.63232 0-0.08192 0-0.14848 0.02048-0.19968 24.73984-65.08544-122.10176-127.96416-283.56608-127.96416" fill="#FFFDFA" /><path d="M426.4704 65.05984c-171.35616 0-310.2976 59.62752-310.2976 133.21728 0 1.60256 0.42496 3.1488 0.5888 4.77696 5.86752 71.33184 142.08 128.42496 309.71392 128.42496 171.39712 0 310.31296-59.63776 310.31296-133.1968 0.00512-73.59488-138.92096-133.2224-310.31808-133.2224m0 238.04416c-156.5184 0-274.34496-52.01408-281.38496-100.26496-0.22016-1.536-0.67584-3.05664-0.67584-4.56192 0-49.50528 120.62208-104.86784 282.06592-104.86784 161.47456 0 282.10688 55.35232 282.10688 104.86784 0 0.0768-0.02048 0.13824-0.02048 0.20992-0.36352 49.4336-120.87808 104.61696-282.09152 104.61696" fill="#FFFDFA" /><path d="M426.4704 50.46784c-171.35616 0-310.2976 59.64288-310.2976 133.21728 0 1.62816 0.42496 3.18976 0.5888 4.78208 5.86752 71.33184 142.08 128.42496 309.71392 128.42496 171.39712 0 310.31296-59.63776 310.31296-133.20704 0.00512-73.56416-138.92096-133.21728-310.31808-133.21728m0 238.04928c-156.5184 0-274.34496-52.02432-281.38496-100.26496-0.22016-1.54624-0.67584-3.0464-0.67584-4.56704 0-49.50016 120.62208-104.83712 282.06592-104.83712 161.47456 0 282.10688 55.33184 282.10688 104.83712 0 0.07168-0.02048 0.14848-0.02048 0.24064-0.36352 49.408-120.87808 104.59136-282.09152 104.59136" fill="#2299E1" /><path d="M658.19648 696.89344m-277.94432 0a277.94432 277.94432 0 1 0 555.88864 0 277.94432 277.94432 0 1 0-555.88864 0Z" fill="#FFFFFF" /><path d="M765.88544 589.08672l-2.80576-5.81632c-1.21344-1.72032-2.93888-2.99008-3.92704-4.98688h-0.2816v-0.2816c1.664-0.40448 3.33824-0.5888 5.04832-0.56832 0.99328 0.96768 2.52928 1.63328 3.34336 2.77504 0.59392 0.90624 0.68608 1.792 1.38752 2.49856 0.01536 2.93888-0.78848 4.89472-2.50368 6.11328l-0.26112 0.26624z m125.12256 124.73344c-4.62848-2.90304-10.00448-4.56192-14.79168-7.48032-2.7136-1.64352-5.30944-3.64544-7.81312-5.53472-2.3296-1.72032-4.92544-5.02784-6.4512-7.48544-0.78336-1.3056-0.92672-2.83648-1.96096-3.89632 0.31744-2.25792 3.21536-2.26816 5.0432-3.04128 6.4256-2.69824 13.93152-3.59424 23.74656-3.34848-0.30208-2.4832-6.4-5.51936-8.3968-6.92224-3.9424-2.76992-8.05888-5.76512-12.288-8.30464-2.21184-1.3056-6.04672-2.35008-8.38656-3.328-3.328-1.38752-10.66496-2.74944-12.56448-5.25312-3.6096-4.7872-6.0928-10.58816-8.64256-16.36352-2.57024-5.76512-5.8112-11.82208-8.40192-17.7408-1.29024-2.89792-1.8944-5.5552-3.34848-8.33536-9.00608-17.11104-22.16448-31.48288-38.26688-41.55904-5.28384-3.3024-11.09504-6.35904-17.60256-8.32-3.67616-1.10592-8.06912-0.4864-12.01664-1.38752h-2.5088c-2.18624-0.64-4.02432-2.944-5.86752-4.15744-3.78368-2.49344-7.51616-4.28544-12.00128-6.10304-1.6896-0.6912-6.1952-2.35008-7.81312-1.12128-0.9472 0.31744-1.38752 0.7168-1.6896 1.6896-0.94208 1.39776-0.1024 3.6096 0.54784 4.98688 1.79712 3.88096 4.38784 6.21056 6.72768 9.43616 2.06336 2.87744 4.62336 6.17472 6.13888 9.41056 3.16416 6.82496 4.5568 14.3616 7.53664 21.0944a44.7488 44.7488 0 0 0 4.47488 7.74656c1.35168 1.80736 3.7376 3.17952 4.45952 5.5552 1.52576 2.3808-2.23744 10.43968-3.07712 13.01504-3.19488 9.92256-2.51904 23.79264 1.10592 32.42496 1.45408 3.39968 2.82112 7.39328 6.72768 8.31488 0.2816-0.18944 0.0512-0.09728 0.55808-0.26112 0.8192-6.63552 1.10592-13.056 3.328-18.29376 1.41312-3.2768 4.06528-5.5296 5.86752-8.32512 1.32608 0.75264 1.31072 2.96448 1.95584 4.43392 1.65376 3.78368 3.3536 7.92064 5.30944 11.648 4.10112 7.79776 8.60672 15.31392 13.696 22.18496 1.80736 2.43712 4.22912 5.06368 6.40512 7.19872 0.93696 0.93184 2.0736 1.37216 2.81088 2.46784H803.84v0.30208c-3.75808-1.28-6.03136-5.03808-8.94464-7.2192-5.56544-4.19328-12.17024-10.40896-15.88736-16.34304l-5.05344-9.96352v-0.27136c-0.69632 0.93184-0.49152 1.92512-0.82432 3.30752-1.5872 6.10816-0.34816 13.0048-5.8624 15.24736-6.30784 2.53952-10.91584-4.09088-12.86144-7.2192-6.35392-10.112-8.00768-27.09504-3.6352-40.7552 0.96768-3.03104 1.0752-6.74304 2.81088-9.13408-0.29184-2.1504-2.05824-2.78016-3.08736-4.16256-1.67936-2.27328-3.14368-4.9408-4.46464-7.47008-2.6112-5.05344-4.3776-10.94656-6.41536-16.36352-0.84992-2.21184-0.9984-4.30592-1.98144-6.37952-1.4592-3.15904-4.08064-6.3232-6.14912-9.13408-2.90816-4.02944-11.07456-11.78624-7.81312-19.69664 5.18656-12.55424 23.16288-3.01568 30.1568 1.38752 1.75616 1.1008 3.71712 3.3792 5.59104 4.15232l9.216 0.55808c5.72928 1.33632 11.136 2.38592 15.6416 4.99712 21.14048 12.29824 34.80064 24.77568 47.47264 45.45024 2.64704 4.31104 4.02944 9.0624 6.14912 13.87008a343.54176 343.54176 0 0 0 10.06592 21.0688c1.65376 3.18976 2.8416 6.69696 5.0176 9.4464 0.93184 1.14176 3.34848 1.51552 4.75136 2.20672 4.13696 2.048 8.95488 3.64544 12.86144 6.09792 7.00928 4.39296 13.8496 9.69216 20.10112 14.96576 2.40128 2.02752 3.94752 4.97664 6.15424 7.21408v1.10592c-1.9712 0.56832-3.9168 1.10592-5.84192 1.65376-4.34688 1.152-8.09472 0.83968-12.29824 1.95584-2.49856 0.67584-5.70368 1.67936-8.3968 1.9456l0.2816 0.29184c1.5872 4.38784 10.15296 8.06912 13.96736 10.80832 4.7872 3.40992 9.2928 7.51616 12.86144 12.17024l3.61984 3.59936c0.84992 1.18784 1.0496 2.75968 1.9712 3.90144v0.26112c-1.71008-0.59392-2.59584-2.08384-3.93728-3.04128-2.6368-1.96608-5.3504-4.1216-8.06912-5.85728z m-152.1408-13.08672h30.35136c1.54112 0 2.92352 0.10752 4.46976 0.3072 13.38368 1.8176 20.15232 7.6288 20.15232 17.21344v37.69856c0 7.75168-2.87744 11.9296-9.4976 14.6176l15.73376 14.1056h-18.5344l-12.73856-11.40736-12.8256 0.80384h-17.10592a35.93216 35.93216 0 0 1-9.37984-1.3056c-10.15296-2.74944-15.09376-8.03328-15.09376-16.80384v-37.67808c0-9.58464 6.77888-15.4112 20.1728-17.2288 1.42336-0.23552 2.85696-0.32256 4.29568-0.32256z m-7.2192 54.30272c0 0.50688 0.1536 1.01376 0.3072 1.61792 0.9216 4.37248 5.07392 6.81472 11.38176 6.81472h14.52544l-13.33248-11.95008h18.55488l11.63264 10.42432c2.14016-1.11104 3.5584-2.84672 4.03968-5.0688 0.16384-0.52224 0.16384-1.00864 0.16384-1.54624v-36.13696c0-0.41472 0-0.94208-0.16384-1.41312-0.9216-4.10112-5.0688-6.43072-11.2384-6.43072h-24.16128c-7.08096 0-11.70432 3.06176-11.70432 7.84384v35.84512h-0.00512z m-73.99424-43.75552c-5.6832 0.49152-7.3728 1.38752-8.15616 4.6592-0.14848 0.512-0.14848 0.91648-0.14848 1.31584v7.23968c0 0.50688 0 0.91136 0.14848 1.39776 0.77824 4.28544 3.86048 6.18496 10.2912 6.18496h19.36384c4.76672 0 9.67168 0.82432 13.67552 2.36544 7.5264 2.82112 11.36128 7.1168 11.36128 11.67872v11.60704c0 5.59104-3.3792 9.86112-10.28608 13.0048-4.13696 1.9456-9.3696 3.05664-14.75072 3.05664h-45.9264v-10.5728h44.0832c0.60928 0 1.06496-0.11776 1.67936-0.11776 3.08736-0.19456 5.38112-0.9984 6.75328-2.23744 1.55136-1.21856 2.31936-2.64192 2.31936-3.75808v-9.23648a3.86048 3.86048 0 0 0-1.23392-2.83648c-1.5616-1.83296-3.70688-2.75456-8.78592-3.15392-0.45568-0.12288-1.0496-0.12288-1.68448-0.12288h-16.5888c-1.54112 0-3.08736-0.10752-4.62336-0.18944-13.6704-1.41824-21.84192-7.52128-21.84192-14.62784v-9.24672c0-8.14592 4.16768-12.81536 13.65504-15.77472 3.08736-0.91648 6.4768-1.31584 12.91264-1.31584h44.8768v10.57792h-45.63968c-0.384-0.00512-0.9984 0.1024-1.45408 0.1024z m-62.03392 84.6848h-50.45248v-10.67008c0.07168 0 50.40128 0.01536 50.5344 0 10.28608-1.05984 9.05728-6.15936 9.05728-7.86944v-4.15232h-33.92c-15.82592-0.15872-25.8816-6.98368-25.984-14.85824-0.0256-0.75264 0.3328-35.25632-0.0256-35.584h15.97952v34.51392c-0.14848 1.86368 0.60416 6.25664 9.36448 6.40512 4.45952 0.06144 34.46784 0 34.72384 0v-41.06752h16.0256c0.07168 0-0.04608 56.00256-0.04608 56.25344 0.1024 13.80352-17.2544 16.78336-25.25696 17.02912z m-80.06656-84.80768l-24.74496 54.59456c-2.9184 6.61504-6.76352 8.95488-14.59712 8.95488-7.84896 0-11.8272-2.33984-14.76096-8.95488l-24.73472-54.59456v62.62784h-15.98976v-62.51008c0-6.13888 2.46272-9.05728 7.54176-10.5984 12.14464-3.75296 20.42368-0.50688 23.97184 7.63904l23.51616 53.87776 24.2688-53.87776c3.67104-8.13056 11.82208-11.39712 23.97184-7.63904 5.0432 1.54624 7.53664 4.45952 7.53664 10.5984v62.51008h-15.97952v-62.62784z m304.31744 44.12416c0 5.59616 3.53792 7.936 12.89728 7.936h41.96352v10.59328h-41.6512c-1.5616-0.03072-3.08224-0.1024-4.61312-0.18432-16.45568-1.23392-24.58624-7.32672-24.58624-18.20672v-54.82496h15.98976v54.72256-0.03584z m74.112-4.04992c6.21568 0 11.78624 4.69504 11.78624 11.66848 0 7.00928-5.56544 11.71456-11.78624 11.71456s-11.76576-4.68992-11.76576-11.71456c0.00512-6.97344 5.55008-11.66848 11.76576-11.66848z m0 20.95104c5.05344 0 9.12896-3.96288 9.12896-9.28256 0-5.28896-4.05504-9.22624-9.12896-9.22624-5.13024 0-9.13408 3.93728-9.13408 9.22624 0 5.31968 4.0192 9.28256 9.13408 9.28256z m5.59104-12.09344c0 2.42688-1.56672 3.42528-3.64544 3.64544l3.88608 5.8624h-2.63168l-3.54816-5.79072h-2.0736v5.79072h-2.25792v-13.34272h5.24288c3.29216-0.00512 5.02784 1.11104 5.02784 3.83488z m-8.03328-1.98144v3.83488h2.41152c1.69984 0 3.1744-0.16384 3.1744-2.02752 0-1.5616-1.62816-1.81248-2.97984-1.81248h-2.60608z" fill="#00758F" /></svg>