<?xml version="1.0" encoding="utf-8"?>
<!-- Generator: Adobe Illustrator 17.0.0, SVG Export Plug-In . SVG Version: 6.00 Build 0)  -->
<!DOCTYPE svg PUBLIC "-//W3C//DTD SVG 1.1//EN" "http://www.w3.org/Graphics/SVG/1.1/DTD/svg11.dtd">
<svg version="1.1" xmlns="http://www.w3.org/2000/svg" xmlns:xlink="http://www.w3.org/1999/xlink" x="0px" y="0px"
	 width="297.638px" height="238.11px" viewBox="0 0 297.638 238.11" enable-background="new 0 0 297.638 238.11"
	 xml:space="preserve">
<g id="Слой_2">
	<path fill="#FFC49C" d="M245.762,117.521v-0.22c-50.371,0-69.175-20.594-89.083-42.397c-20.02-21.927-40.728-44.594-95.208-44.702
		v-0.313H36.063v27.868h25.026v0.525c53.06,0,73.302,33.626,92.877,66.145c18.985,31.538,38.608,64.11,87.564,65.885v0.365h25.407
		v-73.155H245.762z"/>
	<path fill="#FFA669" d="M156.679,74.904c-20.02-21.927-40.728-44.594-95.208-44.702v-0.313H36.063v12.646
		c6.112-0.72,12.348-0.374,18.485-0.395c2.867-0.01,4.857-0.026,6.541,1.061V42.96c54.893,0,75.646,28.894,95.716,56.835
		c19.336,26.921,37.637,52.385,84.725,53.822v-36.096h4.232v-0.22C195.391,117.301,176.588,96.707,156.679,74.904z"/>
	<path fill="#78DCFF" d="M266.938,31.065h-21.176v-0.007c-0.288,0-0.563,0.006-0.849,0.007h-3.383v0.026
		c-48.494,0.679-68.072,13.032-87.015,24.992c-19.615,12.385-39.897,25.191-93.426,25.191v0.028H36.063v55.176h25.026v0.196
		c53.846,0,73.841-20.475,93.178-40.274c18.456-18.898,37.537-38.4,87.263-40.026v9.581c-48.8,1.302-68.429,25.129-87.419,48.199
		c-19.569,23.772-39.804,48.354-93.022,48.354v0.164H36.063v33.397h25.408v-0.069c54.623-0.142,75.331-30.13,95.353-59.139
		c19.907-28.843,38.71-56.087,88.938-56.087v-0.669h21.176V31.065z"/>
	<rect x="36.063" y="162.673" fill="#0B94DD" width="25.408" height="33.397"/>
	<g>
		<path fill="#A9EFFF" d="M61.471,103.006c53.153-0.075,73.371-15.577,92.917-30.573c18.963-14.548,38.563-29.573,87.142-30.398
			V31.091c-48.494,0.679-68.072,13.032-87.015,24.992c-19.615,12.385-39.897,25.191-93.426,25.191v0.028h0.382V103.006z"/>
		<path fill="#A9EFFF" d="M245.762,31.058c-0.288,0-0.563,0.006-0.849,0.007h0.849V31.058z"/>
		<path fill="#A9EFFF" d="M241.53,65.955c-48.8,1.302-68.429,25.129-87.419,48.199c-19.569,23.772-39.804,48.354-93.022,48.354
			v0.164H36.063v33.397h25.408v-0.069c54.623-0.142,75.331-30.13,95.353-59.139c19.907-28.843,38.71-56.087,88.938-56.087v-0.669
			h-4.232V65.955z"/>
	</g>
	<rect x="36.063" y="29.889" fill="#E06500" width="25.408" height="27.868"/>
</g>
<g id="Слой_1">
	<g>
		<rect x="36.063" y="29.889" fill="#E06500" width="25.408" height="27.868"/>
	</g>
	<g>
		<rect x="241.53" y="117.521" fill="#E06500" width="25.407" height="73.155"/>
	</g>
	<rect x="36.063" y="81.302" fill="#0B94DD" width="25.408" height="55.176"/>
	<rect x="36.063" y="162.673" fill="#0B94DD" width="25.408" height="33.397"/>
	<rect x="241.53" y="31.065" fill="#0B94DD" width="25.408" height="49.041"/>
</g>
</svg>
