<?xml version="1.0" standalone="no"?><!DOCTYPE svg PUBLIC "-//W3C//DTD SVG 1.1//EN" "http://www.w3.org/Graphics/SVG/1.1/DTD/svg11.dtd"><svg class="icon" height="512" viewBox="0 0 1024 1024" version="1.1" xmlns="http://www.w3.org/2000/svg"><path d="M834.018 134.316H189.92c-52.843 0-95.819 42.977-95.819 95.822v563.418c0 52.809 42.977 95.819 95.819 95.819h644.098c52.81 0 95.82-43.011 95.82-95.819V230.138c0-52.845-43.011-95.822-95.82-95.822z m-451.877 59.82c18.031 0 32.666 14.632 32.666 32.666 0 18.036-14.635 32.666-32.666 32.666-18.036 0-32.666-14.63-32.666-32.666 0-18.034 14.629-32.666 32.666-32.666z m-101.265 0c18.032 0 32.666 14.632 32.666 32.666 0 18.036-14.634 32.666-32.666 32.666-18.035 0-32.665-14.63-32.665-32.666 0-18.034 14.63-32.666 32.665-32.666z m-102.355 0c18.035 0 32.665 14.632 32.665 32.666 0 18.036-14.63 32.666-32.665 32.666-18.032 0-32.666-14.63-32.666-32.666-0.001-18.034 14.633-32.666 32.666-32.666z m699.051 599.421c0 24.023-19.533 43.553-43.555 43.553H189.92c-24.024 0-43.555-19.529-43.555-43.553V310.032h731.207v483.525z" /></svg>