<?xml version="1.0" encoding="UTF-8" standalone="no"?>
<svg
   style="overflow:visible"
   height="1036"
   width="592"
   version="1.1"
   id="svg18915"
   sodipodi:docname="korea_2019_modi.svg"
   inkscape:version="1.1.2 (b8e25be833, 2022-02-05)"
   xmlns:inkscape="http://www.inkscape.org/namespaces/inkscape"
   xmlns:sodipodi="http://sodipodi.sourceforge.net/DTD/sodipodi-0.dtd"
   xmlns="http://www.w3.org/2000/svg"
   xmlns:svg="http://www.w3.org/2000/svg">
  <sodipodi:namedview
     id="namedview18917"
     pagecolor="#ffffff"
     bordercolor="#666666"
     borderopacity="1.0"
     inkscape:pageshadow="2"
     inkscape:pageopacity="0"
     inkscape:pagecheckerboard="false"
     showgrid="false"
     inkscape:zoom="0.74345077"
     inkscape:cx="281.79405"
     inkscape:cy="554.17254"
     inkscape:window-width="1920"
     inkscape:window-height="1009"
     inkscape:window-x="-8"
     inkscape:window-y="-8"
     inkscape:window-maximized="1"
     inkscape:current-layer="svg18915" />
  <defs
     id="defs18875">
    <filter
       id="dropshadow"
       x="-0.012265758"
       y="-0.0069948379"
       width="1.0279387"
       height="1.0159327">
      <feGaussianBlur
         in="SourceAlpha"
         stdDeviation="3"
         id="feGaussianBlur18864" />
      <feOffset
         dx="2"
         dy="2"
         result="offsetblur"
         id="feOffset18866" />
      <feMerge
         id="feMerge18872">
        <feMergeNode
           id="feMergeNode18868" />
        <feMergeNode
           in="SourceGraphic"
           id="feMergeNode18870" />
      </feMerge>
    </filter>
  </defs>
  <g
     filter="url(#dropshadow)"
     id="g18894">
    <path
       id="CD11"
       class="OUTLINE"
       d="m 178,231 -4,2 -4,3 h -1 v 1 l -3,1 -4,-5 h -4 l -6,1 -4,3 -2,-1 -1,-1 -3,2 -3,-3 -1,-3 -2,-3 v 0 l -1,-2 -3,2 -3,1 -2,-4 v -8 l -3,-1 v 0 0 0 l -2,-1 -3,-2 2,-4 3,-3 v -1 0 0 -1 h 1 l 4,2 7,1 2,-2 v 1 h 2 l 1,-4 2,-8 7,-1 4,2 v -3 l 1,-1 2,-4 3,-4 h 2 l 3,2 7,2 2,8 1,4 1,1 v 0 2 2 1 0 l -1,6 h 3 l 8,-1 v 5 l -4,3 -1,5 z"
       style="fill:#ffffff" />
    <path
       id="CD26"
       class="OUTLINE"
       d="m 496,722 v 4 h -1 l -2,-5 -1,6 -1,-2 v 0 h -1 l -1,1 -1,2 v 1 l -1,-1 -1,-6 -1,-6 -2,3 -2,-3 v 2 0 0 0 0 h -1 1 l -4,1 -2,-5 -1,5 -1,2 v 0 h -2 l -7,-2 v -2 l 2,-2 -1,-3 -5,-4 -2,-2 4,-1 h 9 v -5 l 1,-6 5,-1 6,-2 7,-1 4,-6 1,-4 h 2 l 3,1 1,-3 6,-3 4,-1 1,-5 3,-6 h 7 l 3,-2 v -3 0 l 2,-3 1,3 v 0 h 1 2 l 4,-1 4,4 1,3 v 1 l -1,1 5,1 -7,4 -1,6 -1,4 h -1 v 0 -1 l -1,2 -1,1 2,2 -1,4 -2,4 -3,6 -3,4 v 1 0 h -5 -4 l -2,-1 -1,4 -1,4 1,-1 v 4 h -7 l -2,-4 -1,1 -3,4 z"
       style="fill:#ffffff" />
    <path
       id="CD27"
       class="OUTLINE"
       d="m 441,530 3,1 3,7 v 4 l 2,9 1,7 -4,4 -2,-1 v 4 l -1,2 -3,6 -2,7 v 8 l -4,2 -4,2 -3,1 -3,-5 h -6 l -5,3 -1,6 -3,7 -2,3 h -5 l -7,3 -7,1 v -8 l -4,-4 -1,-3 5,-2 h 6 v -5 l -5,-4 -1,-5 3,-5 3,-2 8,-1 v -5 l -8,-4 h -6 v -5 l 2,-5 3,-4 3,-3 5,-1 2,7 3,3 h 1 l 2,-4 3,-7 v -7 l 2,2 1,1 3,-2 6,-4 3,-3 5,-1 z"
       style="fill:#ffffff" />
    <path
       id="CD28"
       class="OUTLINE"
       d="m 91,229 1,-2 v 1 0 h 1 1 v -1 h 1 l -1,-1 v 0 0 h 2 l -4,-5 v -5 l 1,-3 v 0 h 1 -1 v -1 0 l 1,-1 v -1 l 4,-1 4,-1 -5,-1 -3,-1 -1,-1 -2,1 1,-3 5,-3 3,-4 4,1 3,3 5,4 4,3 5,2 -2,4 -1,3 -1,5 -2,2 2,5 2,3 -1,7 -1,2 -2,3 -1,-3 -1,6 -7,2 -1,6 -6,1 h -1 l -3,-5 -2,-4 -1,-5 5,-2 -4,-2 v -3 l -2,2 z m -9,-10 3,1 v 0 l 1,2 2,3 -2,2 -4,1 -8,5 -9,7 -4,-2 -3,-3 h -1 l -2,1 -2,-4 4,-5 4,-2 7,-1 7,-3 1,-4 z m -18,-63 3,2 4,4 7,4 v 4 l 2,3 -1,2 -2,4 2,3 -1,4 v 3 h 2 v 2 l -1,1 1,1 -1,1 1,2 1,2 1,1 h -1 l -5,4 -8,1 h -8 l -5,-4 v -4 l 4,-3 v -5 l -2,-4 h 1 v -1 l -5,-3 -1,-8 v -7 l 4,-4 v 0 h 1 z"
       style="fill:#ffffff" />
    <path
       id="CD29"
       class="OUTLINE"
       d="m 113,687 2,3 6,3 7,-3 4,-2 h 2 1 v 0 0 h 1 v 0 l 1,-1 h 4 l 4,3 2,3 -1,1 1,1 3,4 6,3 1,4 -1,7 -4,4 -3,4 -7,1 h -7 l -6,2 -1,1 h -1 l -1,1 -4,1 -8,-1 v -4 l -4,-5 -4,-1 h -7 l -4,-7 -1,-1 3,-3 2,-6 2,-4 h 2 l 1,1 4,-4 1,-4 v 0 0 z"
       style="fill:#ffffff" />
    <path
       id="CD30"
       class="OUTLINE"
       d="m 223,432 1,6 4,1 v 0 h 3 l 4,-4 h 1 v 2 l -1,2 3,2 2,6 5,1 v 5 l -2,6 -2,3 -2,7 -1,8 1,7 -5,3 -2,4 -7,-1 -3,-4 -2,-1 1,-2 -1,-2 1,-1 v 0 l -3,-2 -2,6 -1,6 -3,4 -1,1 -1,-4 -3,-4 -1,1 h -1 l -2,-3 -1,-7 -5,-4 1,-2 1,-3 2,-8 1,-7 v -6 l 9,-3 2,-3 2,-3 2,-5 z"
       style="fill:#ffffff" />
    <path
       id="CD31"
       class="OUTLINE"
       d="m 550,641 2,6 -1,7 -1,8 -3,3 v 0 h -1 v 1 0 l -2,1 -5,-1 1,-1 v -1 l -1,-3 -4,-4 -4,1 h -2 -1 v 0 l -1,-3 -1,-7 -4,-1 -6,-2 -4,-5 -2,-3 -4,-3 -5,-3 -1,-3 -3,1 h -1 v 0 h -2 l -3,-2 -4,-4 5,-5 v -8 l 3,-4 h 1 l 1,1 4,-3 h 3 l -2,-3 v -2 l 1,-1 v -1 l 2,-4 4,-2 4,-1 9,-1 h 5 l 4,3 3,3 4,7 6,-1 3,-2 4,-2 7,2 h 1 l 7,3 2,8 v 7 l -1,8 -2,4 2,-1 -2,5 -1,4 -1,-1 v 1 l -2,1 -2,-6 -3,-6 -3,-1 2,2 -2,1 2,1 1,3 -3,1 h 2 v 0 l 1,1 v 4 z"
       style="fill:#ffffff" />
    <path
       id="CD36"
       class="OUTLINE"
       d="m 184,410 -2,-2 v -5 l 1,-9 -1,-4 -1,1 v 0 h -1 l -1,-4 3,-4 h 3 l 5,2 5,3 6,3 h 2 v 0 0 0 l 2,1 2,2 -2,4 -1,4 2,4 v 3 3 l 2,1 3,3 6,2 3,4 3,2 v 8 l -6,2 -2,5 -2,3 -2,3 -9,3 -6,-1 -6,-4 -1,-3 -3,-9 v -7 l 2,-7 1,-4 v 0 0 l -1,1 z"
       style="fill:#ffffff" />
    <path
       id="CD41"
       class="OUTLINE"
       d="m 81,192 1,-2 -1,-1 -1,-7 -1,-3 1,-3 1,-4 -2,-3 v -5 l 4,2 4,2 4,1 3,-1 4,-2 h 4 l 3,5 -1,-4 -1,-12 -1,-1 v -1 0 0 0 0 l 3,-2 -1,-5 v 0 l 1,-3 v -5 l -1,1 -1,-4 3,-6 7,-2 7,-2 3,-2 5,-2 1,-4 1,-1 1,-1 3,-3 1,-6 1,-7 4,-4 3,-2 3,2 h 1 l 3,-5 1,-3 v 0 l 1,-2 2,-3 3,-7 8,2 3,-5 h 1 1 3 v 0 h 1 v 0 0 h 1 v 0 h 1 l 3,1 3,-1 h 1 l 1,3 4,9 1,5 6,1 4,-2 3,-3 h 4 l -1,1 -1,5 v 6 l 4,2 3,3 2,-1 5,-3 h 5 l 6,2 1,5 1,8 2,6 6,2 6,1 2,5 6,3 4,3 1,3 -1,1 1,2 v 1 l -1,4 -4,3 -5,4 -4,6 v 5 l -1,2 1,2 1,6 -3,3 -1,4 7,1 -1,7 v 8 h 8 l 5,1 4,3 5,3 3,4 h 4 4 l 1,-1 3,2 7,3 4,3 1,2 -5,2 -4,2 1,1 h -1 l -3,4 2,5 2,3 v 6 l -1,3 -1,5 -4,7 v 8 l -1,7 v 6 l -1,4 -1,6 -4,6 -2,5 -4,3 h -8 v 7 l -3,4 -1,1 -1,-1 -1,1 v -1 3 l -5,3 v 2 0 l -2,1 -4,-2 h -2 l -3,1 -2,-1 h -3 l -2,5 -3,4 -5,3 -4,3 1,1 1,1 -5,4 -4,2 -4,2 -4,1 1,3 v 1 0 0 l -2,3 -4,-4 -6,-3 -3,-3 -5,-3 -5,-2 -8,2 -1,3 h -1 -2 l -4,1 -7,1 -8,2 -6,2 -3,4 v -4 l -8,1 -8,-1 v -7 l 3,-8 -9,-1 2,-7 -6,-3 -1,-5 -10,-11 v -5 -4 l -2,1 -1,-1 -1,1 h -1 v 0 0 0 l 1,-4 2,-3 h -3 l -1,-4 -3,-5 h -2 l -2,1 -2,-1 2,3 -7,1 v -7 -7 l 3,-2 -1,-1 h 1 l 6,-4 h 2 l -3,1 -4,4 -2,3 2,1 4,3 3,3 -1,1 2,1 3,3 v 1 4 l 2,-1 3,-1 -2,-2 v 0 -1 l 1,-1 -1,-2 v 0 0 l -1,-2 5,-3 6,1 h 5 v 0 l 1,2 -1,1 1,1 v 1 l 1,-4 h 1 l -1,6 3,-6 1,-4 2,-1 -1,-1 h 3 l 4,3 1,1 1,-2 h 1 v 0 l 2,1 -1,-2 -7,-3 -7,-2 -4,-1 v 0 h -1 l -2,-2 -8,-5 -1,-4 9,-7 7,-2 -5,-2 v -1 l 1,-1 v -1 l 1,-2 1,-7 -2,-3 -2,-5 2,-2 1,-5 1,-3 3,2 2,1 v 0 0 0 l 3,1 v 8 l 2,4 3,-1 3,-2 1,2 v 0 l 2,3 1,3 3,3 3,-2 1,1 2,1 4,-3 6,-1 h 4 l 4,5 3,-1 v -1 h 1 l 4,-3 4,-2 3,-8 1,-5 4,-3 v -5 l -8,1 h -3 l 1,-6 v 0 -1 -2 -2 0 l -1,-1 -1,-4 -2,-8 -7,-2 -3,-2 h -2 l -3,4 -2,4 -1,1 v 3 l -4,-2 -7,1 -2,8 -1,4 h -2 v -1 l -2,2 -7,-1 -4,-2 h -1 v 1 0 0 1 l -3,3 -5,-2 -4,-3 -5,-4 -3,-3 -4,-1 -3,4 -5,3 -7,-1 -2,-5 z m 39,100 -5,1 -3,4 -5,4 -2,2 9,10 h 5 l -1,-7 -1,-2 v -1 l 3,-2 5,-4 -3,-2 1,-1 1,-1 -1,-2 1,-4 z"
       style="fill:#ffffff" />
    <path
       id="CD42"
       class="OUTLINE"
       d="m 409,61 2,3 v 0 3 l 3,4 3,5 -2,4 2,-1 2,4 1,6 2,4 2,4 4,5 h 1 -1 l 2,3 4,6 5,5 1,3 4,5 v 0 h 1 v 3 l 4,6 4,4 3,5 2,4 3,3 3,5 v -1 0 0 1 l 3,4 4,4 5,5 3,4 3,2 4,5 3,4 4,6 v 5 l 2,5 h -1 1 l 4,4 4,3 v 0 0 0 0 1 -1 l 1,4 v 4 -1 l 1,4 2,7 4,4 4,4 2,4 1,1 -1,-1 v 0 2 l 2,4 4,3 4,3 2,7 1,4 v -1 l 1,2 3,3 2,3 h 1 l 1,1 2,1 v 0 0 1 1 0 1 0 0 0 l 1,1 2,5 v 6 l 1,8 2,5 h -1 v 0 0 0 l -1,-1 -1,1 -1,-1 -1,1 -5,4 -5,2 -3,4 -3,4 v 3 3 1 h 1 -5 l -6,-3 -5,-4 -3,-2 -7,-1 -3,5 h -3 l -4,-2 v 1 l -1,-1 h -5 -4 v 0 l -3,-2 -4,1 -4,6 -7,1 -6,-5 -4,-2 h -2 l -3,4 -1,7 -6,-1 -4,-1 -5,-3 -5,-3 -2,-2 -2,1 h -1 v -1 h -1 v 0 l -2,1 -3,-1 -6,-2 -4,-4 -2,-2 -2,2 -5,1 h -5 l -4,-7 -2,-3 -1,1 v 0 l -2,-1 -1,1 -2,-1 -1,1 -1,-1 v 1 h -1 1 l -4,2 -6,-1 -1,-3 5,-4 4,-5 -10,-2 -3,-2 v 0 h -2 l -3,-2 -5,-1 -3,5 -3,-1 -2,-1 h -1 l -1,-1 -2,4 -2,2 -4,2 h -1 -1 l -3,1 -2,-5 -2,-4 v -1 0 l -4,-3 -7,1 -5,4 v 1 l 1,5 v 4 l -2,3 -4,2 -1,-1 h -3 l -2,1 -1,-1 -1,1 -4,1 h -7 l -4,-5 -2,-7 1,-6 1,-4 v -6 l 1,-7 v -8 l 4,-7 1,-5 1,-3 v -6 l -2,-3 -2,-5 3,-4 h 1 l -1,-1 4,-2 5,-2 -1,-2 -4,-3 -7,-3 -3,-2 -1,1 h -4 -4 l -3,-4 -5,-3 -4,-3 -5,-1 h -8 v -8 l 1,-7 -7,-1 1,-4 3,-3 -1,-5 -1,-3 1,-2 v -5 l 4,-6 5,-4 4,-3 1,-4 v -1 l -1,-2 1,-1 -1,-3 -4,-3 -6,-3 -2,-5 -6,-1 -6,-2 -2,-6 -1,-8 -1,-5 -6,-2 h -5 l -5,3 -2,1 -3,-3 -4,-2 v -6 l 1,-5 1,-1 h -4 l -3,3 -4,2 -6,-1 -1,-5 -4,-9 -1,-3 h -1 l -3,1 -3,-1 v -3 -3 h -1 l -1,-3 3,-1 -1,-1 2,-2 2,-2 v 0 0 l 1,4 6,-2 2,-2 h -1 v 0 0 l 2,-1 4,-2 7,1 4,4 h 1 v -1 0 l -1,-1 v 0 h 1 v 0 0 -1 1 h 1 v 1 l 8,1 3,-6 h 6 l 8,3 3,1 4,2 4,-2 4,-2 6,-3 5,1 v 0 0 0 0 0 l 1,1 7,1 v 2 0 l 2,-2 1,2 h 6 3 l 3,-2 5,4 5,3 h 7 l 5,-5 v 0 l 4,1 8,3 2,3 1,1 1,-1 2,1 2,-3 h 5 l 6,-2 3,-5 6,-1 7,-1 2,-6 5,-3 6,-1 1,-5 2,-6 h 5 v -5 1 -2 h -3 l 3,-1 4,-8 1,-8 -1,-6 4,-2 6,3 1,4 2,8 3,5 2,4 2,6 2,6 3,4 3,5 3,7 1,3 z"
       style="fill:#ffffff" />
    <path
       id="CD43"
       class="OUTLINE"
       d="m 321,275 4,3 v 0 1 l 2,4 2,5 3,-1 h 1 1 l 4,-2 2,-2 2,-4 1,1 h 1 l 2,1 3,1 3,-5 5,1 3,2 h 2 v 0 l 3,2 10,2 -4,5 -5,4 1,3 6,1 4,-2 h -1 1 v -1 l 1,1 1,-1 2,1 1,-1 1,1 h 1 l 1,-1 2,3 4,7 h 5 l 5,-1 2,-2 2,2 4,4 6,2 3,1 2,-1 v 0 h 1 v 1 h 1 l 2,-1 2,2 5,3 -4,1 -2,2 -3,-1 v 1 l -5,3 -3,5 -4,3 -4,4 -4,2 -4,4 -2,5 -3,7 2,8 -2,6 -5,1 -7,1 -7,-3 -4,-3 -4,-4 -4,-2 v 0 l -3,4 -2,6 h -6 l -5,-2 -1,-1 -3,2 -4,4 -1,2 -3,-3 -3,1 -1,5 -1,8 3,4 1,2 h -5 l -3,-3 h -1 l -4,2 -3,-2 -2,-1 -3,6 -6,2 -3,1 -1,1 v 0 1 l 4,1 4,3 1,5 -1,4 -1,2 1,1 -2,-1 -4,-5 -2,-4 v -1 l -4,4 v 4 0 l -1,1 -6,2 1,5 7,3 2,5 4,3 v 5 l -3,3 v 2 1 0 0 0 1 0 1 l -1,4 v 2 l 2,2 -2,3 -1,3 3,3 -1,2 h 1 v 3 l -3,4 -3,5 1,6 h 6 l 2,-3 2,3 4,3 2,2 h 1 l 1,1 h 2 l 3,-3 6,1 2,5 2,6 1,2 -4,-1 h -7 v 8 l -1,6 -3,4 v 1 2 l -1,3 -3,6 -5,2 -4,3 -4,2 -9,-1 -8,2 -6,-2 -5,-2 -2,-3 -3,3 -2,-1 -5,-3 -1,-7 -4,-9 v -6 -7 l -2,-6 -6,-2 h -8 l -1,-7 1,-8 2,-7 2,-3 2,-6 v -5 l -5,-1 -2,-6 -3,-2 1,-2 v -2 h -1 l -4,4 h -3 v 0 l -4,-1 -1,-6 v -8 l -3,-2 -3,-4 -6,-2 -3,-3 -2,-1 v -3 -3 l -2,-4 1,-4 2,-4 -2,-2 -1,-2 3,-4 5,-5 5,-4 7,1 -1,-5 -1,-5 -5,-4 -5,-2 -2,-5 -3,-5 -3,-3 2,-3 v 0 0 -1 l -1,-3 4,-1 4,-2 4,-2 5,-4 -1,-1 -1,-1 4,-3 5,-3 3,-4 2,-5 h 3 l 2,1 3,-1 h 2 l 4,2 2,-1 v 0 -2 l 5,-3 v -3 1 l 1,-1 1,1 1,-1 3,-4 v -7 h 8 l 4,-3 2,-5 4,-6 2,7 4,5 h 7 l 4,-1 1,-1 1,1 2,-1 h 3 l 1,1 4,-2 2,-3 v -4 l -1,-5 v -1 l 5,-4 z"
       style="fill:#ffffff" />
    <path
       id="CD44"
       class="OUTLINE"
       d="m 53,418 1,8 2,5 2,2 v 4 l -1,2 3,2 1,2 v 0 l -1,5 -6,-1 -5,-2 v -3 h 1 l -3,-2 -1,-6 -2,2 1,-5 1,-3 h -1 v 0 h -1 v -3 -8 l -2,-3 v 0 0 -2 l 3,-3 6,1 v 3 h -1 v 1 0 z m -23,-64 1,1 2,-3 4,-3 2,-6 v -8 l 2,-4 1,1 v 0 0 0 l -1,2 1,1 v 0 h 1 l -2,3 v 4 l 2,4 1,3 -2,2 h 1 l -1,2 -2,4 3,3 h -1 1 l -1,1 -3,3 6,-1 2,-5 4,3 v 0 -1 l -1,-3 1,-1 3,-5 6,-3 v -5 -4 0 h -1 l -1,1 h -2 l -2,-1 v 0 l -2,-2 -4,-3 5,-1 2,-1 h -1 l -1,-2 -6,-2 3,-3 v -1 l 3,1 2,-1 h 6 l 2,1 3,1 2,-4 8,-7 3,3 5,2 3,1 v 1 0 l 6,3 3,2 10,1 6,2 7,-1 2,5 2,7 2,4 1,3 11,3 4,-2 3,-4 6,-2 8,-2 7,-1 4,-1 h 2 1 l 1,-3 8,-2 5,2 5,3 3,3 6,3 4,4 3,3 3,5 2,5 5,2 5,4 1,5 1,5 -7,-1 -5,4 -5,5 -3,4 -1,1 v 0 0 0 0 h -2 l -6,-3 -5,-3 -5,-2 h -3 l -3,4 1,4 h 1 v 0 l 1,-1 1,4 -1,9 v 5 l 4,3 2,3 1,-1 v 0 0 l -1,4 -2,7 v 7 l 3,9 1,3 6,4 6,1 v 6 l -1,7 -2,8 -1,3 -1,2 5,4 1,7 2,3 h 1 l 1,-1 3,4 1,4 1,-1 3,-4 1,-6 2,-6 3,2 v 0 l -1,1 1,2 -1,2 2,1 3,4 7,1 2,-4 5,-3 h 8 l 6,2 2,6 v 7 6 l 4,9 1,7 -1,4 h 1 v 2 l -2,1 1,3 -1,2 h -1 l -3,-4 -8,-2 -2,8 -5,2 -7,-1 -3,-5 -1,-3 v 0 l -4,2 -5,-3 -3,-6 -1,-7 -1,-5 -3,-2 -6,2 -5,1 h -1 -1 l -3,3 -7,1 -8,2 -2,2 h -6 l -3,-1 -3,-3 -3,-8 -4,-2 -3,-2 -1,1 h -2 l -4,-2 -4,1 -2,2 -7,3 -2,7 v 5 l -6,3 -7,4 -8,4 -2,2 h -1 v 1 l -7,-2 -4,1 1,-3 -3,-6 -3,-4 -1,-3 3,-2 -4,-2 -2,-2 v 0 l -1,-2 -6,-3 -4,-2 -3,-1 -4,1 v 0 l 1,2 -2,-1 v -3 l 1,-1 v 0 l 3,-1 3,-9 v -7 l 1,-3 v 0 -1 l 1,-1 -1,-3 -5,-6 2,-5 6,-3 h 5 l -4,-1 -4,-2 -4,-3 -5,-3 1,-5 1,-2 v 0 l 2,-1 2,-2 -3,1 h -1 v -1 0 0 l 1,-1 -2,-3 -1,-6 -1,-9 -2,-6 -1,-6 -7,-4 v -1 l -7,-2 -5,1 -3,3 -4,2 -1,-6 -2,-9 -3,-3 v -1 0 0 0 -2 l 1,-3 1,-4 h -1 v -1 l -1,2 -4,3 -5,4 -3,2 h -5 l 1,-6 h 7 l -1,-6 -4,-4 h -2 -1 -1 l -1,4 -2,4 -2,1 1,-3 1,-3 v 0 0 l -1,-2 -1,-4 2,-1 v -1 0 h -1 l 1,-1 v 0 h 1 l 1,-4 2,-7 2,4 2,4 2,3 -1,-5 -1,-4 -1,-1 2,-3 v -7 l 3,-4 v 1 -1 1 l 2,-1 4,-1 -2,3 -2,2 z"
       style="fill:#ffffff" />
    <path
       id="CD45"
       class="OUTLINE"
       d="m 134,519 v -5 l 2,-7 7,-3 2,-2 4,-1 4,2 h 2 l 1,-1 3,2 4,2 3,8 3,3 3,1 h 6 l 2,-2 8,-2 7,-1 3,-3 h 1 1 l 5,-1 6,-2 3,2 1,5 1,7 3,6 5,3 4,-2 v 0 l 1,3 3,5 7,1 5,-2 2,-8 8,2 3,4 h 1 l 1,-2 -1,-3 2,-1 v -2 h -1 l 1,-4 5,3 2,1 3,-3 2,3 5,2 6,2 8,-2 9,1 2,4 v 1 0 l 2,4 3,7 -4,7 -3,2 -3,5 -4,3 -3,2 -6,2 -5,2 -3,6 -3,4 -5,3 -2,8 v 5 l -3,3 -2,7 -1,8 -2,4 -1,3 -2,8 6,6 2,8 v 5 l 4,3 -1,5 -3,3 -3,5 -2,3 v 1 0 0 l 1,4 -2,3 -4,4 -3,-3 -4,-2 -5,-4 -4,-2 -6,-1 -4,1 -2,4 -4,5 -4,1 -3,-2 h -1 l -3,2 h -8 l -4,-1 -5,-3 -2,2 -2,1 -4,-3 -3,1 -4,3 -5,2 -8,-3 -1,-4 v -8 l -4,-3 v -2 l 3,-3 -1,-4 -1,-3 -1,-4 -3,1 -2,-1 -1,4 -1,2 -2,2 h -1 l -1,5 -7,-1 -4,-3 -2,-5 -5,-3 -1,-1 -2,1 -1,-4 -6,2 -5,1 -4,4 v 7 l -3,3 v 1 2 l -3,3 -3,3 -5,3 -4,1 1,2 h -4 -6 l -1,1 h 1 l -2,2 -7,-1 -2,-5 -1,-4 h -2 l -1,1 -1,-4 -1,-8 -2,-3 -6,-2 4,-9 1,-3 4,-5 4,-3 h 1 v 0 0 0 l 2,-1 v 1 l 1,-1 v 1 h 1 v 1 l 1,-2 v 1 h 1 -1 v -1 l 4,-1 3,2 1,1 v -1 -1 l 2,-4 2,-3 v 0 0 0 h 2 2 l 4,4 2,5 -1,-5 -2,-5 -8,-2 h -9 -6 l -3,1 v 0 l -3,-3 -4,-3 -1,-1 1,-2 h -1 l 1,-1 -1,-2 h 1 l 3,-2 6,-5 1,-1 h 1 l 1,-2 3,-2 -1,-3 -4,-4 -3,-6 -4,-11 h -2 l -3,-1 v -2 l 5,-2 6,-11 3,-8 -1,-2 -1,-7 5,1 v -1 h 3 9 l 7,-2 7,-2 4,2 3,-2 v -4 l 8,-4 7,-4 z m -64,54 1,6 2,3 3,6 6,7 h 2 l 3,-3 3,-5 2,-8 1,-4 h 4 l 7,-1 -1,-8 -1,-4 -3,-5 -7,-1 -2,-6 -1,-6 h -5 l -6,1 -4,12 -2,4 -1,5 z"
       style="fill:#ffffff" />
    <path
       id="CD46"
       class="OUTLINE"
       d="m 118,837 1,-4 -1,-7 -2,-4 h 1 v -1 l -1,-3 1,-3 v -1 0 l -1,3 -2,8 v 9 l -2,8 -3,2 v 0 l 2,3 -3,4 -3,2 -7,4 h -4 v 0 1 l -4,4 -2,6 -2,5 -2,4 -7,2 -3,3 h -3 v -1 0 0 0 -2 l 1,-2 v -1 l 1,-1 -1,-1 v -1 0 l -3,-3 -4,1 v 1 l -1,-1 1,-1 v -1 0 l -1,-2 h 1 l -1,-1 v 0 l 1,-1 h -1 l 3,-3 1,-7 -6,-2 v -2 l 2,1 -1,-4 v -4 0 0 0 l -1,-4 -1,-4 v 1 -1 l -2,1 v -3 l -2,-2 1,-1 -2,-1 -2,-1 -2,3 h -3 l -3,-4 -9,-3 -2,-3 -1,-1 -1,1 -1,-4 -2,-6 -3,-5 v -1 l 1,-1 -1,-1 1,-2 2,-5 3,-8 5,1 3,5 2,3 2,2 3,-3 2,-3 v -1 l -2,-4 3,-4 6,-1 3,-1 -6,-1 h -7 l 1,-7 5,-4 v -5 l -2,-4 -1,1 2,-5 -1,-6 v -6 l -2,-4 -1,-3 -1,5 v 8 l -4,3 h -2 l -3,-3 -2,-5 -1,-2 3,-2 6,-1 v -3 h -2 l 4,-3 4,-3 1,-2 -5,-3 -4,-2 -1,-1 h 1 v 0 l 1,-2 -4,-1 -2,5 -2,1 v -1 l -1,-1 -1,-1 -2,3 -2,6 h -2 l -1,-2 -1,2 -2,-7 -3,-1 v 1 0 1 l -1,-1 -1,-2 v 0 h -1 v 0 l -2,-1 -3,-1 1,-1 v 0 -1 l -1,-2 v -2 l 5,-1 6,1 4,1 v 0 0 h 2 v -1 l -2,-3 1,-3 v -1 l 1,1 3,-2 4,1 2,1 3,-3 3,-1 -1,5 -1,4 v 3 h 2 l 1,-1 v 3 l 3,4 1,-1 1,-2 v -1 l 2,2 1,6 v 4 l 2,-1 1,1 1,-1 v 0 -2 l 2,-3 2,-6 v -4 l -5,-3 -3,-4 h -1 l -1,-2 -3,-4 -1,-5 2,-4 -4,2 -3,1 1,-2 v -2 h -1 l 1,1 v 1 h -2 l -3,-4 1,-5 1,2 2,-1 v -1 -1 h 1 -2 l 2,-4 h -1 v -2 l 4,-1 4,-2 -1,-3 1,-1 v -1 -1 0 0 0 0 l 1,-2 3,-6 4,1 2,3 v -3 l -4,-4 -1,-4 2,-6 3,-1 6,2 2,3 1,8 1,4 1,-1 h 2 l 1,4 2,5 7,1 2,-2 h -1 l 1,-1 h 6 4 l -1,-2 4,-1 5,-3 3,-3 3,-3 v -2 -1 l 3,-3 v -7 l 4,-4 5,-1 6,-2 1,4 2,-1 1,1 5,3 2,5 4,3 7,1 1,-5 h 1 l 2,-2 1,-2 1,-4 2,1 3,-1 1,4 1,3 1,4 -3,3 v 2 l 4,3 v 8 l 1,4 8,3 5,-2 4,-3 3,-1 4,3 2,-1 2,-2 5,3 4,1 h 8 l 3,-2 h 1 l 3,2 4,-1 4,-5 2,-4 4,-1 6,1 4,2 5,4 4,2 3,3 3,8 2,3 1,4 v 8 l 4,6 5,3 4,6 v 4 l 4,4 3,4 4,3 3,5 1,2 v 3 l -3,6 -5,3 -1,-2 -3,5 -3,3 v 2 l -3,-2 -2,3 -1,1 h -4 l -5,-3 -1,-5 -3,8 5,3 v 1 l -2,5 1,3 h 1 v 0 0 -1 0 l 3,3 h 9 l 3,-2 v -1 l -1,-1 h 5 l 3,2 v 0 l 3,-2 2,7 -2,6 -2,9 1,2 -1,1 -5,2 -3,1 v 0 l -3,-3 -4,-2 -1,1 -2,3 v 4 l -3,-1 v 5 l 2,9 v 3 l -3,-2 -5,-1 -1,3 -2,-2 -2,-4 v -2 0 -3 l 3,-3 -2,-1 -1,-1 -1,1 1,-4 3,-2 1,-6 -3,-3 h -1 1 v -1 1 0 l 1,-1 v 1 -2 l -4,-4 -4,-1 v 0 l 2,-5 -2,-2 v 0 -1 0 -1 l -1,-3 v -4 h 1 -1 l -4,3 -1,6 -6,1 -1,-3 -1,1 v -1 l -1,1 -4,4 -7,-1 -4,-1 4,2 4,3 v 0 h 1 1 1 l 1,1 1,-1 -3,3 -3,3 1,1 h -1 v 1 l 1,3 -2,2 v 6 l 2,3 h 1 v 0 l 3,3 4,4 1,1 v 0 l 3,2 2,1 v 1 l 2,1 h -3 l 1,2 h 1 v 0 l 1,1 1,-1 1,4 -1,7 h -6 l -7,1 -2,3 1,2 4,1 v 0 0 l -1,1 1,1 -1,1 -2,4 -4,2 v -1 l -2,1 1,3 v 0 l -2,1 -3,-1 -1,1 -1,1 v 0 l -3,2 -1,5 -3,-1 v 0 0 -1 0 l 1,1 -1,-2 -3,-3 -2,-3 h 1 l -1,-3 -6,-3 -3,-3 -1,1 -1,1 v -1 l -1,1 -3,-1 h -3 v 1 h 1 -2 l -2,-1 -1,1 -2,-1 v 1 l -1,-1 v 0 0 l -2,-3 v -4 0 l 1,-1 1,-1 v 0 l 2,-2 1,-4 2,2 2,-4 1,-2 -1,-1 1,-1 3,-3 6,-3 2,-6 2,-4 3,-1 2,5 v 4 0 l 1,1 h 4 l 2,-5 2,-7 -3,-6 -3,1 -3,2 h -4 l -3,-4 -4,3 -2,4 -3,5 -6,1 -4,-2 v 0 0 -1 l -3,4 -3,4 h -2 l 1,1 -4,2 -3,4 h -1 -1 l -2,2 h -8 l -4,-1 4,2 4,3 -1,1 h 1 v 0 l -2,4 3,3 -1,2 v -1 h -1 l -3,4 -1,7 v 6 l -5,2 -2,4 -2,-1 h -6 l -1,4 -4,-2 -3,-2 -1,1 h -2 l -1,-1 -1,1 -2,-4 v -4 h -1 z m -57,-14 3,-2 2,-2 -4,-2 -2,-3 -2,1 v -2 h -1 v 0 l -1,-3 -2,-3 v 0 h -1 l -1,2 h -3 l -1,-4 1,2 h 1 l 1,-3 -1,-3 h 2 l -1,-2 -2,-1 -4,4 h -3 l 1,4 2,5 3,6 5,3 4,2 z M 49,798 h 1 2 l 3,4 3,-2 2,-1 v 4 l -3,4 v 0 l 4,3 4,2 v 0 0 0 l 4,1 3,1 v 0 1 0 0 h 1 v -2 l -4,-4 -3,-4 4,3 7,2 5,3 5,1 2,1 1,-1 -8,-2 -4,-4 1,-2 1,-2 h -1 1 l -3,1 -6,-2 2,-1 -3,-1 -2,-3 -4,-2 2,-3 -1,-1 v 0 0 0 0 h -1 l -2,1 -2,-2 -1,1 h -2 v 0 0 0 -1 0 0 h -2 l -4,2 -1,2 v 1 0 0 z m 73,-71 4,-1 1,-1 h 1 l 1,-1 6,-2 h 7 l 7,-1 3,-4 4,-4 1,-7 -1,-4 -6,-3 -3,-4 -1,-1 1,-1 -2,-3 -4,-3 h -4 l -1,1 v 0 h -1 v 0 0 h -1 -2 l -4,2 -7,3 -6,-3 -2,-3 -4,1 v 0 0 l -1,4 -4,4 -2,-1 h -1 l -2,4 -2,6 -3,3 1,1 4,7 h 7 l 4,1 4,5 v 4 z M 95,876 h -1 l -1,-7 v -5 l 6,-2 6,2 3,6 1,4 v 0 0 l 2,4 2,6 -4,-1 h 1 -3 l -7,-1 z m 96,-33 h 1 v 1 0 l 1,3 -2,6 -2,3 -10,1 -7,-4 v -6 l 3,-3 v 0 0 1 l 4,2 5,-3 v 0 0 h 1 v 0 h 1 2 1 1 z m -164,-20 5,2 4,3 -1,1 v 0 0 0 l 4,2 3,2 v 0 l 2,2 3,6 1,4 -1,-1 -2,3 v 6 l -4,5 -2,2 -1,-2 -2,2 -1,-1 v 0 1 1 l -3,1 -5,2 1,1 -3,1 -3,1 -5,1 -7,1 H 5 l 1,-1 H 5 l 1,-1 1,-2 -5,-2 -2,-8 3,-4 1,1 h 1 v 0 l -1,-3 5,-4 4,-1 v -1 l 4,-3 4,-3 v -1 h -1 l 2,-3 z m 254,-29 2,1 5,3 v 2 h -1 l -1,-1 -1,1 v -1 3 l 2,5 h 1 1 v 4 7 l 1,5 h -6 l -3,-1 h -1 v -1 0 0 l -3,-3 v -7 l 4,-3 1,-5 -1,-6 -1,-1 v 0 0 0 0 -1 z"
       style="fill:#ffffff" />
    <path
       id="CD47"
       class="OUTLINE"
       d="m 560,528 7,2 5,-4 3,-4 3,-4 1,-1 v 0 l 3,-4 3,2 2,6 -1,8 -2,3 h -1 v 0 l -1,4 v 4 0 h -1 v -1 1 0 l -2,2 -2,3 v 2 h 1 v 0 l 1,4 v 4 l -1,-1 -1,1 v 0 l 1,4 -1,3 v 0 0 0 1 l -1,3 v 3 0 1 l -1,-1 -1,4 -1,8 -2,7 -1,6 -2,4 -2,4 -7,-3 h -1 l -7,-2 -4,2 -3,2 -6,1 -4,-7 -3,-3 -4,-3 h -5 l -9,1 -4,1 -4,2 -2,4 v 1 l -1,1 v 2 l 2,3 h -3 l -4,3 -1,-1 h -1 l -3,4 h -7 l -5,-4 h -3 l -3,1 -4,3 -4,5 -5,1 -6,3 h -8 l -7,-2 -8,-1 -7,2 -6,-3 -3,-3 -3,-3 -1,-7 v -5 l 1,-6 5,-3 h 6 l 3,5 3,-1 4,-2 4,-2 v -8 l 2,-7 3,-6 1,-2 v -4 l 2,1 4,-4 -1,-7 -2,-9 v -4 l -3,-7 -3,-1 h -9 l -5,1 -3,3 -7,4 -2,2 -1,-1 -2,-2 v 7 l -3,7 -2,4 h -1 l -3,-3 -2,-7 -5,1 -3,3 -3,4 -2,5 v 5 h 6 l 8,4 v 5 l -8,1 -3,2 -3,5 1,5 5,4 v 5 h -6 l -5,2 1,3 4,4 v 8 l -5,-3 -3,-3 -7,-1 -8,1 -3,2 h -2 l -3,-2 -5,-3 2,-3 v 0 h 1 l 2,-4 -1,-7 -2,-4 -3,-3 -5,-4 -2,-4 -1,-4 h -1 -1 l -5,-2 h -8 l -7,-2 -5,-3 h -1 l -3,1 -1,-4 -4,-3 -4,-5 4,-7 -3,-7 -2,-4 v 0 -1 l -2,-4 4,-2 4,-3 5,-2 3,-6 1,-3 v -2 -1 l 3,-4 1,-6 v -8 h 7 l 4,1 -1,-2 -2,-6 -2,-5 -6,-1 -3,3 h -2 l -1,-1 h -1 l -2,-2 -4,-3 -2,-3 -2,3 h -6 l -1,-6 3,-5 3,-4 v -3 h -1 l 1,-2 -3,-3 1,-3 2,-3 -2,-2 v -2 l 1,-4 v -1 0 -1 0 0 0 -1 -2 l 3,-3 v -5 l -4,-3 -2,-5 -7,-3 -1,-5 6,-2 1,-1 v 0 -4 l 4,-4 v 1 l 2,4 4,5 2,1 -1,-1 1,-2 1,-4 -1,-5 -4,-3 -4,-1 v -1 0 l 1,-1 3,-1 6,-2 3,-6 2,1 3,2 4,-2 h 1 l 3,3 h 5 l -1,-2 -3,-4 1,-8 1,-5 3,-1 3,3 1,-2 4,-4 3,-2 1,1 5,2 h 6 l 2,-6 3,-4 v 0 l 4,2 4,4 4,3 7,3 7,-1 5,-1 2,-6 -2,-8 3,-7 2,-5 4,-4 4,-2 4,-4 4,-3 3,-5 5,-3 v -1 l 3,1 2,-2 4,-1 5,3 4,1 6,1 1,-7 3,-4 h 2 l 4,2 6,5 7,-1 4,-6 4,-1 3,2 h 4 5 l 1,1 1,-1 3,2 h 3 l 3,-5 7,1 3,2 5,4 6,3 h 5 -1 v -1 -3 -3 l 3,-4 3,-4 5,-2 5,-4 1,-1 1,1 1,-1 1,1 v 0 0 0 h 1 v -1 l 1,2 1,4 2,5 6,7 -1,3 v 1 1 l -1,2 1,3 v 4 1 1 l -1,1 1,1 v 0 1 l 1,5 v 6 l 1,5 -1,-1 v 4 l 4,7 2,3 h -1 l 1,1 1,4 3,7 v 9 6 l -2,5 -1,-2 -1,1 -3,5 -2,6 v 7 l 4,8 1,5 v 2 0 l 1,2 -1,2 v 1 0 0 0 l -1,3 v 7 l -2,8 -3,6 -2,3 -1,6 -1,7 v 7 l 1,8 -1,4 v -1 l 1,4 2,3 1,5 1,5 6,3 v 0 3 l -4,4 -4,3 h -1 l -2,4 6,2 z"
       style="fill:#ffffff" />
    <path
       id="CD48"
       class="OUTLINE"
       d="m 307,751 4,2 v 5 l -1,4 v 0 h -1 l -1,4 1,4 h 1 l -1,1 3,3 3,4 h 3 l -1,-1 v 0 l 4,-2 7,-1 4,1 v 0 l 1,1 v 5 7 l -1,4 -1,4 1,2 v 0 0 0 h 1 l -1,1 v 0 0 l -1,1 -2,-1 -1,1 -2,-3 -4,1 -6,-3 -2,-8 -6,2 -2,6 -6,-1 -2,-6 1,-4 -1,1 -1,-4 -2,-3 -2,-4 v -7 l 2,-3 v -1 0 -2 0 -1 -1 l 3,-1 2,-5 z m 134,-20 3,1 1,2 -2,3 v 1 0 1 h -1 v 4 l 3,3 1,5 v 4 0 l -1,2 -2,3 -1,3 h 2 l -1,1 2,-1 3,-2 3,-1 -1,1 -2,5 -1,4 -2,-1 -1,1 -1,1 3,2 v 7 l -2,-3 h -1 v 0 0 l -1,1 -3,-1 -2,3 -3,4 -1,3 4,4 h 3 l -1,1 -1,1 v -1 h -1 -1 -1 l -4,2 -6,1 -1,-3 v 0 h -1 -1 l 2,-5 -1,-3 -2,1 h -2 l -1,-3 5,-3 v -6 -4 1 l -1,-2 -2,1 v 1 0 l -3,2 -4,2 -1,3 v 0 h -1 l -2,-4 -3,-3 -1,-4 v -4 l 1,-1 v 0 l 3,-3 4,-4 h 1 v 0 0 l 3,3 4,1 v -1 l 4,1 h 4 l -1,-2 1,-1 h -1 v 0 0 l -3,-4 2,-5 5,-1 3,-5 v 0 0 h 1 v 0 0 0 0 h 1 v 0 l -1,-1 h 1 l 1,1 v -4 z m -12,-38 -4,1 -3,2 -2,4 1,3 v 0 1 l 2,3 v 3 0 1 l -1,-1 h -1 l -1,1 4,2 3,6 2,2 -2,1 3,2 -2,1 v 0 0 l -3,1 -4,1 1,-2 1,-1 -4,-1 3,-3 -4,-1 -3,-4 -3,1 -1,2 v 0 h -1 v 0 h -1 l -1,-1 -2,-1 -1,2 v 0 h -1 l -3,-1 v 5 l -3,2 -3,2 -7,4 v 4 l 2,-3 5,-2 4,-2 v -1 -1 l 1,-1 1,1 h 1 v 0 l 1,-1 2,1 v 0 l -1,4 1,4 v 0 0 l 1,-1 v 1 0 1 l 2,1 -4,3 -2,2 h -1 v 0 h -1 v 0 0 0 0 l -4,-1 -1,2 4,2 -2,3 -1,5 -1,7 1,6 1,-2 v 0 h 1 l 1,-1 v 0 0 l -1,-1 h 1 v 0 -2 l -1,-1 4,2 1,5 -1,-2 -1,4 -2,4 -4,2 h -6 v -4 l 5,-1 -5,-3 -1,-3 -1,2 v -1 l -1,2 -2,-1 -1,-1 -2,1 -2,-1 -1,1 -1,-1 h -1 1 l -1,-3 4,-1 4,-1 v -1 l -3,-5 -1,-4 -1,1 v -1 h -1 v 0 l -1,2 -2,3 v 3 0 0 0 0 0 l -4,2 -2,-1 v 0 -1 l -1,-1 1,-1 v -1 0 0 0 -1 0 0 0 h -4 -6 l -2,7 -6,1 -4,2 v 1 l -3,-4 -3,-2 3,-1 h -2 -2 v -1 h -1 1 l -1,1 v 0 l -4,-1 -5,-4 -1,-3 v 1 l 2,-2 1,-2 -1,-2 v -4 l 1,-2 v 0 0 l -2,-2 v -5 l 1,-4 2,-3 -3,2 -2,5 -1,4 v 0 0 0 0 h -2 v 0 l 1,-3 h -2 1 l -3,1 2,2 2,4 v 3 h -1 v 1 l -1,1 h 1 v 0 -1 h -1 l -1,-1 -2,2 -3,-2 v 0 h -1 v 0 1 0 l -3,1 -1,-2 v 0 -2 l -4,-3 1,3 -1,2 h 1 v 0 l -1,1 h 1 v 1 0 0 0 0 1 l -2,1 -4,5 h -5 l -2,-2 v 0 0 l -1,1 -5,2 -4,1 v 0 l -1,-1 -2,-5 3,-6 v -3 l -1,-2 -3,-5 -4,-3 -3,-4 -4,-4 v -4 l -4,-6 -5,-3 -4,-6 v -8 l -1,-4 -2,-3 -3,-8 4,-4 2,-3 -1,-4 v 0 0 -1 l 2,-3 3,-5 3,-3 1,-5 -4,-3 v -5 l -2,-8 -6,-6 2,-8 1,-3 2,-4 1,-8 2,-7 3,-3 v -5 l 2,-8 5,-3 3,-4 3,-6 5,-2 6,-2 3,-2 4,-3 3,-5 3,-2 4,5 4,3 1,4 3,-1 h 1 l 5,3 7,2 h 8 l 5,2 h 1 1 l 1,4 2,4 5,4 3,3 2,4 1,7 -2,4 h -1 v 0 l -2,3 5,3 3,2 h 2 l 3,-2 8,-1 7,1 3,3 5,3 7,-1 7,-3 h 5 l 2,-3 3,-7 v 5 l 1,7 3,3 3,3 6,3 7,-2 8,1 7,2 h 8 l 6,-3 5,-1 4,-5 4,-3 3,-1 h 3 l 5,4 h 7 v 8 l -5,5 4,4 3,2 h 2 v 0 h 1 l 3,-1 1,3 5,3 4,3 2,3 4,5 6,2 4,1 1,7 -2,3 v 0 3 l -3,2 h -7 l -3,6 -1,5 -4,1 -6,3 -1,3 -3,-1 h -2 l -1,4 -4,6 -7,1 -6,2 -5,1 -1,6 v 5 h -9 l -4,1 2,2 5,4 1,3 -2,2 -3,2 -4,1 2,-2 v -1 l -4,-1 -2,6 -3,-2 -1,-3 -3,1 -2,-1 h -2 l -1,1 v -3 l -2,-6 -2,3 -1,1 v -1 l -1,-1 v -1 l -1,1 -3,-3 -3,2 h 1 -1 l 1,1 h -1 l -2,-5 -2,-6 4,-6 z"
       style="fill:#ffffff" />
    <path
       id="CD50"
       class="OUTLINE"
       d="m 112.30984,957.3305 5,2 3,2 5,3 6,2 3,5 -1,4 v 0 h 1 v 0 l 1,1 2,1 -2,1 h 3 l -1,7 -2,1 -3,7 -4,4 -3,5 -3,5 -5,4 h -5 l -3,1 v 0 0 0 l -1,1 -2,1 v 1 l -3,1 -7.999998,2 h -4 v 0 h -2 l -3,2 -6,3 h -7 l -8,1 -7,1 -7,-1 h -8 -7 l -6,1 -3,5 -6,-1 -3,-4 -4,-3 -5,-2 -2,-4 -2,-8 2,-7 3,-4 h 1 1 l 3,-3 4,-3 3,-5 3,-4 4,-2 6,-4 4,-2 5,-1 6,-1 7,-3 4,-2 4,-1 5,-1 -1,1 4,-1 7,-1 6,-2 3,-3 1,1 v 0 h 1 v 1 0 h 1 l 2,-1 h 2 1 v 0 h 1 l 5.999998,-1 z"
       style="fill:#ffffff" />
  </g>
  <g
     filter="url(#dropshadow)"
     id="g18913"
     transform="translate(-21.521259,-1.345079)">
    <text
       id="LCD11"
       class="TEXT"
       x="156"
       y="214">서울</text>
    <text
       id="LCD26"
       class="TEXT"
       x="457.40826"
       y="741">부산</text>
    <text
       id="LCD27"
       class="TEXT"
       x="418"
       y="567">대구</text>
    <text
       id="LCD28"
       class="TEXT"
       x="42.788578"
       y="116.47144">인천</text>
    <text
       id="LCD29"
       class="TEXT"
       x="102.78858"
       y="707">광주</text>
    <text
       id="LCD30"
       class="TEXT"
       x="272.11301"
       y="472.41556">대전</text>
    <text
       id="LCD31"
       class="TEXT"
       x="531"
       y="622">울산</text>
    <text
       id="LCD36"
       class="TEXT"
       x="168.06319"
       y="404.54922">세종</text>
    <text
       id="LCD41"
       class="TEXT"
       x="264.42285"
       y="228.85904">경기</text>
    <text
       id="LCD42"
       class="TEXT"
       x="395.55649"
       y="139.99271">강원</text>
    <text
       id="LCD43"
       class="TEXT"
       x="341.07776"
       y="337.95746">충북</text>
    <text
       id="LCD44"
       class="TEXT"
       x="57.922237"
       y="466.48602">충남</text>
    <text
       id="LCD45"
       class="TEXT"
       x="179"
       y="592">전북</text>
    <text
       id="LCD46"
       class="TEXT"
       x="199.87363"
       y="762.65491">전남</text>
    <text
       id="LCD47"
       class="TEXT"
       x="447"
       y="460">경북</text>
    <text
       id="LCD48"
       class="TEXT"
       x="367"
       y="672">경남</text>
    <text
       id="LCD50"
       class="TEXT"
       x="88.105713"
       y="1005.4361">제주</text>
  </g>
</svg>
